<svg width="40" height="40" viewBox="0 0 40 40" fill="none" xmlns="http://www.w3.org/2000/svg">
<g clip-path="url(#clip0_784_9534)">
<path d="M0 8C0 3.58172 3.58172 0 8 0H32C36.4183 0 40 3.58172 40 8V32C40 36.4183 36.4183 40 32 40H8C3.58172 40 0 36.4183 0 32V8Z" fill="white"/>
<path d="M32.9467 25.1267C38.72 27.0667 40 27.16 40 27.16V6.42C40.0018 5.57698 39.8371 4.74191 39.5155 3.96264C39.1939 3.18337 38.7217 2.47524 38.1259 1.87882C37.5301 1.28241 36.8225 0.809443 36.0435 0.487037C35.2646 0.164631 34.4297 -0.000875577 33.5867 3.4834e-06H6.41335C4.71235 0.00353161 3.08214 0.681268 1.87998 1.88468C0.677817 3.08809 0.00177475 4.71901 1.3883e-05 6.42V33.58C-0.00174104 34.423 0.162898 35.2581 0.484495 36.0374C0.806091 36.8166 1.27832 37.5248 1.87412 38.1212C2.46991 38.7176 3.17756 39.1906 3.95649 39.513C4.73542 39.8354 5.57033 40.0009 6.41335 40H33.5867C35.2877 39.9965 36.9179 39.3187 38.12 38.1153C39.3222 36.9119 39.9982 35.281 40 33.58V33.3333C40 33.3333 29.6133 29 24.36 26.4533C20.8333 30.7733 16.28 33.42 11.5733 33.42C3.57335 33.42 0.90668 26.4533 4.68001 21.84C5.83079 20.5463 7.37411 19.6658 9.07335 19.3333C12.4667 18.4933 17.8867 19.8533 22.9467 21.5267C23.8929 19.7756 24.6462 17.927 25.1933 16.0133H9.58001V14.4533H17.6267V11.6467H7.85335V10.0667H17.6267V6C17.6265 5.90899 17.645 5.8189 17.681 5.73529C17.7169 5.65169 17.7697 5.57633 17.8359 5.51387C17.9021 5.45141 17.9804 5.40317 18.0659 5.37213C18.1515 5.34108 18.2425 5.32787 18.3333 5.33334H22.2733V10.0667H31.92V11.6467H22.2733V14.4867H30.16C29.4626 17.4379 28.3397 20.272 26.8267 22.9C29.2 23.7733 31.3467 24.58 32.9467 25.1267ZM9.74668 21.74C8.3366 21.8696 6.98618 22.3711 5.83335 23.1933C2.75335 25.86 4.58668 30.7733 10.8 30.7733C14.42 30.7733 18.0133 28.4533 20.8667 24.7733C16.8667 22.7733 13.4267 21.3867 9.74668 21.74Z" fill="#00A7EF"/>
</g>
<rect x="-953.5" y="-457.5" width="2535" height="1373" rx="39.5" stroke="#EF5533"/>
<defs>
<clipPath id="clip0_784_9534">
<path d="M0 8C0 3.58172 3.58172 0 8 0H32C36.4183 0 40 3.58172 40 8V32C40 36.4183 36.4183 40 32 40H8C3.58172 40 0 36.4183 0 32V8Z" fill="white"/>
</clipPath>
</defs>
</svg>
