<svg width="40" height="40" viewBox="0 0 40 40" fill="none" xmlns="http://www.w3.org/2000/svg">
<circle cx="20" cy="20" r="20" fill="#2CB5A5"/>
<path d="M21.7625 20.0002L27.1375 14.6377C27.3729 14.4024 27.5051 14.0831 27.5051 13.7502C27.5051 13.4174 27.3729 13.0981 27.1375 12.8627C26.9021 12.6274 26.5829 12.4951 26.25 12.4951C25.9171 12.4951 25.5979 12.6274 25.3625 12.8627L20 18.2377L14.6375 12.8627C14.4021 12.6274 14.0829 12.4951 13.75 12.4951C13.4171 12.4951 13.0979 12.6274 12.8625 12.8627C12.6271 13.0981 12.4949 13.4174 12.4949 13.7502C12.4949 14.0831 12.6271 14.4024 12.8625 14.6377L18.2375 20.0002L12.8625 25.3627C12.7453 25.4789 12.6523 25.6172 12.5889 25.7695C12.5254 25.9218 12.4927 26.0852 12.4927 26.2502C12.4927 26.4152 12.5254 26.5786 12.5889 26.731C12.6523 26.8833 12.7453 27.0215 12.8625 27.1377C12.9787 27.2549 13.1169 27.3479 13.2693 27.4113C13.4216 27.4748 13.585 27.5075 13.75 27.5075C13.915 27.5075 14.0784 27.4748 14.2307 27.4113C14.383 27.3479 14.5213 27.2549 14.6375 27.1377L20 21.7627L25.3625 27.1377C25.4787 27.2549 25.6169 27.3479 25.7693 27.4113C25.9216 27.4748 26.085 27.5075 26.25 27.5075C26.415 27.5075 26.5784 27.4748 26.7307 27.4113C26.883 27.3479 27.0213 27.2549 27.1375 27.1377C27.2546 27.0215 27.3476 26.8833 27.4111 26.731C27.4746 26.5786 27.5072 26.4152 27.5072 26.2502C27.5072 26.0852 27.4746 25.9218 27.4111 25.7695C27.3476 25.6172 27.2546 25.4789 27.1375 25.3627L21.7625 20.0002Z" fill="white"/>
<rect x="-1108.5" y="-248.5" width="2535" height="1373" rx="39.5" stroke="#EF5533"/>
</svg>
