<svg width="80" height="80" viewBox="0 0 80 80" fill="none" xmlns="http://www.w3.org/2000/svg">
<rect width="80" height="80" rx="40" fill="url(#paint0_linear_784_9534)"/>
<g clip-path="url(#clip0_784_9534)">
<path d="M22.8995 57.9406C22.7295 57.8908 22.572 57.8055 22.4374 57.6903C22.3029 57.5751 22.1943 57.4327 22.1189 57.2724C22.0436 57.1121 22.0031 56.9376 22.0002 56.7605C21.9973 56.5834 22.032 56.4077 22.1021 56.245C23.6501 52.681 28.1915 50.0224 31.6493 48.217C28.7369 45.6322 27.1601 42.547 27.0701 39.217L26.7803 30.2314C26.7803 26.4334 30.2345 22 39.9707 22C49.7393 22 53.2187 26.2516 53.2187 30.2314L52.9055 39.01C52.8767 42.4408 51.3107 45.5944 48.3605 48.208C51.6743 50.008 56.3525 52.6738 57.8987 56.245C57.9685 56.4077 58.003 56.5834 58 56.7604C57.9969 56.9374 57.9564 57.1118 57.881 57.272C57.8057 57.4322 57.6972 57.5746 57.5628 57.6899C57.4284 57.8051 57.2711 57.8906 57.1013 57.9406V58H22.8995V57.9406ZM50.4161 36.3946L50.4827 34.4866C43.5239 32.278 36.5327 32.2672 29.5055 34.456L29.5667 36.31C37.2203 34.3912 44.1701 34.42 50.4179 36.3964L50.4161 36.3946ZM40.0301 32.17C40.1827 32.17 40.3338 32.1399 40.4748 32.0815C40.6158 32.023 40.7439 31.9373 40.8517 31.8293C40.9595 31.7213 41.045 31.5931 41.1032 31.452C41.1615 31.311 41.1913 31.1598 41.1911 31.0072V29.7652H42.6761C42.9843 29.7652 43.2798 29.6428 43.4977 29.4249C43.7156 29.207 43.838 28.9115 43.838 28.6033C43.838 28.2951 43.7156 27.9996 43.4977 27.7817C43.2798 27.5638 42.9843 27.4414 42.6761 27.4414H41.1911V26.1328C41.1973 25.9766 41.1718 25.8208 41.1163 25.6747C41.0607 25.5285 40.9763 25.3951 40.868 25.2825C40.7596 25.1698 40.6297 25.0801 40.4858 25.0189C40.342 24.9577 40.1873 24.9261 40.031 24.9261C39.8747 24.9261 39.72 24.9577 39.5762 25.0189C39.4323 25.0801 39.3024 25.1698 39.194 25.2825C39.0857 25.3951 39.0012 25.5285 38.9457 25.6747C38.8902 25.8208 38.8647 25.9766 38.8709 26.1328V27.4414H37.5929C37.2847 27.4414 36.9892 27.5638 36.7713 27.7817C36.5534 27.9996 36.431 28.2951 36.431 28.6033C36.431 28.9115 36.5534 29.207 36.7713 29.4249C36.9892 29.6428 37.2847 29.7652 37.5929 29.7652H38.8709V31.0072C38.8709 31.6498 39.3911 32.17 40.0319 32.17H40.0301Z" fill="white" fill-opacity="0.85"/>
<g filter="url(#filter0_d_784_9534)">
<path fill-rule="evenodd" clip-rule="evenodd" d="M31.6493 48.217C28.7369 45.6322 27.1601 42.547 27.0701 39.217L26.7803 30.2314C26.7803 26.4334 30.2345 22 39.9707 22C49.7393 22 53.2187 26.2516 53.2187 30.2314L52.9055 39.01C52.8767 42.4408 51.3107 45.5944 48.3605 48.208C48.3605 48.208 45.5 50.5 40 50.5C34.5 50.5 31.6493 48.217 31.6493 48.217ZM50.4827 34.4866L50.4161 36.3946L50.4179 36.3964C44.1701 34.42 37.2203 34.3912 29.5667 36.31L29.5055 34.456C36.5327 32.2672 43.5239 32.278 50.4827 34.4866ZM40.0301 32.17C39.3897 32.1695 38.8709 31.6495 38.8709 31.0072V29.7652H37.5929C37.2847 29.7652 36.9892 29.6428 36.7713 29.4249C36.5534 29.207 36.431 28.9115 36.431 28.6033C36.431 28.2951 36.5534 27.9996 36.7713 27.7817C36.9892 27.5638 37.2847 27.4414 37.5929 27.4414H38.8709V26.1328C38.8647 25.9766 38.8902 25.8208 38.9457 25.6747C39.0012 25.5285 39.0857 25.3951 39.194 25.2825C39.3024 25.1698 39.4323 25.0801 39.5761 25.0189C39.72 24.9577 39.8747 24.9261 40.031 24.9261C40.1873 24.9261 40.342 24.9577 40.4858 25.0189C40.6296 25.0801 40.7596 25.1698 40.8679 25.2825C40.9763 25.3951 41.0607 25.5285 41.1163 25.6747C41.1718 25.8208 41.1972 25.9766 41.1911 26.1328V27.4414H42.6761C42.9842 27.4414 43.2798 27.5638 43.4977 27.7817C43.7156 27.9996 43.838 28.2951 43.838 28.6033C43.838 28.9115 43.7156 29.207 43.4977 29.4249C43.2798 29.6428 42.9842 29.7652 42.6761 29.7652H41.1911V31.0072C41.1913 31.1598 41.1615 31.311 41.1032 31.452C41.045 31.5931 40.9595 31.7213 40.8517 31.8293C40.7438 31.9373 40.6158 32.023 40.4748 32.0815C40.3338 32.1399 40.1827 32.17 40.0301 32.17Z" fill="white"/>
</g>
</g>
<rect x="-29.5" y="-94.5" width="601" height="209" rx="19.5" stroke="black"/>
<rect x="-83.5" y="-183.5" width="2535" height="1373" rx="39.5" stroke="#EF5533"/>
<defs>
<filter id="filter0_d_784_9534" x="22.7803" y="19" width="34.4384" height="36.5" filterUnits="userSpaceOnUse" color-interpolation-filters="sRGB">
<feFlood flood-opacity="0" result="BackgroundImageFix"/>
<feColorMatrix in="SourceAlpha" type="matrix" values="0 0 0 0 0 0 0 0 0 0 0 0 0 0 0 0 0 0 127 0" result="hardAlpha"/>
<feOffset dy="1"/>
<feGaussianBlur stdDeviation="2"/>
<feComposite in2="hardAlpha" operator="out"/>
<feColorMatrix type="matrix" values="0 0 0 0 0.345098 0 0 0 0 0.8 0 0 0 0 0.8 0 0 0 0.3 0"/>
<feBlend mode="multiply" in2="BackgroundImageFix" result="effect1_dropShadow_784_9534"/>
<feBlend mode="normal" in="SourceGraphic" in2="effect1_dropShadow_784_9534" result="shape"/>
</filter>
<linearGradient id="paint0_linear_784_9534" x1="19" y1="3.68804e-07" x2="40" y2="80" gradientUnits="userSpaceOnUse">
<stop stop-color="#91EDE2"/>
<stop offset="1" stop-color="#0BB2C9"/>
</linearGradient>
<clipPath id="clip0_784_9534">
<rect width="40" height="40" fill="white" transform="translate(20 20)"/>
</clipPath>
</defs>
</svg>
