<svg width="24" height="24" viewBox="0 0 24 24" fill="none" xmlns="http://www.w3.org/2000/svg">
<path d="M12 1.5L3 4.5V13.5C3 18.4711 7.02891 22.5 12 22.5C16.9711 22.5 21 18.4711 21 13.5V4.5L12 1.5ZM19.3125 13.5C19.3125 17.5383 16.0383 20.8125 12 20.8125C7.96172 20.8125 4.6875 17.5383 4.6875 13.5V5.76562L12 3.1875L19.3125 5.76562V13.5Z" fill="#6F6F6F"/>
<path d="M8.86919 11.1351C8.79098 11.0566 8.69803 10.9942 8.59567 10.9517C8.49331 10.9092 8.38355 10.8873 8.2727 10.8873C8.16185 10.8873 8.05209 10.9092 7.94973 10.9517C7.84737 10.9942 7.75442 11.0566 7.67621 11.1351C7.59765 11.2133 7.53531 11.3063 7.49278 11.4087C7.45024 11.511 7.42834 11.6208 7.42834 11.7316C7.42834 11.8425 7.45024 11.9522 7.49278 12.0546C7.53531 12.157 7.59765 12.2499 7.67621 12.3281L10.709 15.3609L10.7583 15.4101C10.8322 15.4842 10.9201 15.543 11.0168 15.5832C11.1135 15.6233 11.2172 15.6439 11.3219 15.6439C11.4266 15.6439 11.5303 15.6233 11.627 15.5832C11.7238 15.543 11.8116 15.4842 11.8856 15.4101L17.1239 10.1719C17.198 10.0979 17.2568 10.01 17.2969 9.91332C17.337 9.81659 17.3577 9.71291 17.3577 9.6082C17.3577 9.50349 17.337 9.39981 17.2969 9.30309C17.2568 9.20636 17.198 9.1185 17.1239 9.04453L17.0583 8.97891C16.9843 8.9048 16.8964 8.846 16.7997 8.80588C16.703 8.76577 16.5993 8.74512 16.4946 8.74512C16.3899 8.74512 16.2862 8.76577 16.1895 8.80588C16.0928 8.846 16.0049 8.9048 15.9309 8.97891L11.3208 13.5867L8.86919 11.1351Z" fill="#6F6F6F"/>
<rect x="-855.5" y="-110.5" width="2535" height="1373" rx="39.5" stroke="#EF5533"/>
</svg>
