<svg width="50" height="50" viewBox="0 0 50 50" fill="none" xmlns="http://www.w3.org/2000/svg">
<path d="M39.5834 4.1665H10.4167C8.75908 4.1665 7.16937 4.82498 5.99727 5.99709C4.82517 7.16919 4.16669 8.7589 4.16669 10.4165V39.5832C4.16669 41.2408 4.82517 42.8305 5.99727 44.0026C7.16937 45.1747 8.75908 45.8332 10.4167 45.8332H39.5834C39.926 45.8284 40.2676 45.7935 40.6042 45.729L41.2292 45.5832H41.375H41.4792L42.25 45.2915L42.5209 45.1457C42.7292 45.0207 42.9584 44.9165 43.1667 44.7707C43.4449 44.566 43.7093 44.3433 43.9584 44.104L44.1042 43.9165C44.3087 43.7092 44.4968 43.4863 44.6667 43.2498L44.8542 42.979C44.9997 42.7471 45.1252 42.5031 45.2292 42.2498C45.2863 42.1499 45.3351 42.0454 45.375 41.9373C45.4792 41.6873 45.5417 41.4165 45.625 41.1457V40.8332C45.7431 40.4261 45.8131 40.0066 45.8334 39.5832V10.4165C45.8334 8.7589 45.1749 7.16919 44.0028 5.99709C42.8307 4.82498 41.241 4.1665 39.5834 4.1665ZM10.4167 41.6665C9.86415 41.6665 9.33425 41.447 8.94355 41.0563C8.55285 40.6656 8.33335 40.1357 8.33335 39.5832V30.604L15.1875 23.729C15.3812 23.5337 15.6116 23.3787 15.8655 23.273C16.1194 23.1672 16.3917 23.1128 16.6667 23.1128C16.9417 23.1128 17.214 23.1672 17.4679 23.273C17.7218 23.3787 17.9522 23.5337 18.1459 23.729L36.0625 41.6665H10.4167ZM41.6667 39.5832C41.6647 39.84 41.6153 40.0943 41.5209 40.3332C41.4732 40.4347 41.4175 40.5323 41.3542 40.6248C41.2984 40.713 41.2357 40.7966 41.1667 40.8748L30.0209 29.729L31.8542 27.8957C32.0479 27.7004 32.2783 27.5454 32.5322 27.4396C32.786 27.3339 33.0583 27.2794 33.3334 27.2794C33.6084 27.2794 33.8807 27.3339 34.1346 27.4396C34.3884 27.5454 34.6188 27.7004 34.8125 27.8957L41.6667 34.7707V39.5832ZM41.6667 28.8748L37.75 24.9998C36.5578 23.8686 34.9769 23.2379 33.3334 23.2379C31.6898 23.2379 30.1089 23.8686 28.9167 24.9998L27.0834 26.8332L21.0834 20.8332C19.8911 19.7019 18.3102 19.0713 16.6667 19.0713C15.0231 19.0713 13.4423 19.7019 12.25 20.8332L8.33335 24.7082V10.4165C8.33335 9.86397 8.55285 9.33407 8.94355 8.94337C9.33425 8.55266 9.86415 8.33317 10.4167 8.33317H39.5834C40.1359 8.33317 40.6658 8.55266 41.0565 8.94337C41.4472 9.33407 41.6667 9.86397 41.6667 10.4165V28.8748ZM28.125 12.4998C27.507 12.4998 26.9028 12.6831 26.3889 13.0265C25.875 13.3699 25.4744 13.8579 25.2379 14.429C25.0014 15 24.9395 15.6283 25.0601 16.2345C25.1806 16.8407 25.4783 17.3975 25.9153 17.8345C26.3524 18.2716 26.9092 18.5692 27.5154 18.6898C28.1216 18.8104 28.7499 18.7485 29.3209 18.512C29.8919 18.2754 30.38 17.8749 30.7234 17.361C31.0667 16.8471 31.25 16.2429 31.25 15.6248C31.25 14.796 30.9208 14.0012 30.3347 13.4151C29.7487 12.8291 28.9538 12.4998 28.125 12.4998Z" fill="#848484"/>
<rect x="-850.5" y="-248.5" width="2535" height="1373" rx="39.5" stroke="#EF5533"/>
</svg>
