<svg width="40" height="40" viewBox="0 0 40 40" fill="none" xmlns="http://www.w3.org/2000/svg">
<path d="M0 8C0 3.58172 3.58172 0 8 0H32C36.4183 0 40 3.58172 40 8V32C40 36.4183 36.4183 40 32 40H8C3.58172 40 0 36.4183 0 32V8Z" fill="white"/>
<path d="M35.0001 0H4.99989C2.24933 0 0 2.24979 0 4.99989V35.0001C0 37.7507 2.24979 40 4.99989 40H35.0001C37.7507 40 40 37.7502 40 35.0001V4.99989C40 2.24933 37.7502 0 35.0001 0ZM20 30.7505C18.2501 30.7505 16.7496 30.5001 15.2505 29.9998C14.2503 30.5001 12.7503 31.7497 12.2505 32.0001C11.2503 32.4999 11.4998 31.4998 11.4998 31.4998L12.0001 28.4998C9.00007 26.5004 7.24967 23.2499 7.24967 19.7501C7.24967 13.4996 12.9998 8.50022 20 8.50022C24.2506 8.50022 28.2494 10.5001 30.4996 13.2502L18.0006 18.9998C18.0006 18.9998 17.0004 19.5001 16.0003 18.7504L14.0004 17.2504C14.0004 17.2504 12.5004 15.9998 13.2502 17.9997L15.25 22.5002C15.25 22.5002 15.5004 23.7498 17.0004 23C18.251 22.5002 27.5001 16.7505 31.5002 14.4998C32.2509 15.9998 32.7499 17.7502 32.7499 19.5001C32.7499 25.5002 27.0007 30.7505 20.0005 30.7505H20Z" fill="#48B338"/>
<rect x="-852.5" y="-457.5" width="2535" height="1373" rx="39.5" stroke="#EF5533"/>
</svg>
