<svg width="40" height="40" viewBox="0 0 40 40" fill="none" xmlns="http://www.w3.org/2000/svg">
<rect x="-180.5" y="-44.5" width="716" height="310" rx="19.5" stroke="black"/>
<path d="M34.2335 10.3443C34.2335 9.56969 34.8566 8.94345 35.62 8.94345C35.8017 8.94371 35.9816 8.98016 36.1493 9.05073C36.3171 9.1213 36.4694 9.2246 36.5975 9.35472C36.7257 9.48483 36.8272 9.6392 36.8963 9.809C36.9654 9.9788 37.0006 10.1607 37 10.3443V34.5306C37 35.727 36.54 36.8477 35.7048 37.6915C34.8697 38.5353 33.7605 39 32.5795 39H9.18211C5.97851 39 3.33602 36.5247 3.02936 33.3671L3.00326 33.4099L3 32.8529V7.44046C3 4.3257 4.80081 1 9.85089 1H29.165C30.7277 1 32 2.28545 32 3.86426V27.9879H9.18211C7.29975 27.9879 5.41086 29.102 5.41086 32.0124C5.41086 33.9142 7.29975 36.2017 9.18211 36.2017H32.3414C32.5899 36.2021 32.836 36.1528 33.0656 36.0566C33.2952 35.9604 33.5036 35.8193 33.6789 35.6413C34.0378 35.2788 34.2335 34.8009 34.2335 34.29V10.3443Z" fill="#16C2A3"/>
<rect x="10" y="13" width="15" height="3" rx="1.5" fill="white"/>
<rect x="16" y="22" width="15" height="3" rx="1.5" transform="rotate(-90 16 22)" fill="white"/>
<rect x="8" y="30.5" width="24" height="3" rx="1.5" fill="#16C2A3"/>
</svg>
