<svg width="92" height="92" viewBox="0 0 92 92" fill="none" xmlns="http://www.w3.org/2000/svg">
<g filter="url(#filter0_f_781_8517)">
<ellipse cx="36.1184" cy="70.8182" rx="13.6184" ry="7.09091" fill="#54A3FF" fill-opacity="0.78"/>
</g>
<path fill-rule="evenodd" clip-rule="evenodd" d="M73.1493 72.074C83.287 65.7839 89.9999 54.8186 89.9999 42.3438C89.9999 22.8239 73.564 7 53.2894 7C33.0147 7 16.5789 22.8239 16.5789 42.3438C16.5789 61.8636 33.0147 77.6875 53.2894 77.6875C55.0655 77.6875 56.8121 77.5661 58.5209 77.3314L70.7421 84.7562C70.9656 84.8921 71.2314 84.9747 71.5097 84.9951C71.788 85.0154 72.0678 84.9725 72.3177 84.8713C72.5676 84.7701 72.7777 84.6145 72.9246 84.422C73.0715 84.2294 73.1493 84.0076 73.1493 83.7812V72.074Z" fill="url(#paint0_linear_781_8517)"/>
<mask id="mask0_781_8517" style="mask-type:alpha" maskUnits="userSpaceOnUse" x="16" y="7" width="74" height="78">
<path d="M73.1494 72.074C83.287 65.7838 89.9999 54.8185 89.9999 42.3438C89.9999 22.8239 73.564 7 53.2894 7C33.0147 7 16.5789 22.8239 16.5789 42.3438C16.5789 61.8636 33.0147 77.6875 53.2894 77.6875C55.0655 77.6875 56.8122 77.5661 58.5209 77.3314L70.7421 84.7563C70.9657 84.8921 71.2315 84.9748 71.5098 84.9951C71.788 85.0154 72.0678 84.9726 72.3177 84.8713C72.5676 84.7701 72.7778 84.6145 72.9247 84.422C73.0716 84.2295 73.1494 84.0076 73.1494 83.7813V72.074Z" fill="#3F99FF"/>
</mask>
<g mask="url(#mask0_781_8517)">
<path d="M8.05623 72.2311C2.4969 68.7817 -1.18433 62.7685 -1.18433 55.9275C-1.18433 45.2231 7.82889 36.5454 18.9472 36.5454C30.0656 36.5454 39.0788 45.2231 39.0788 55.9275C39.0788 66.6319 30.0656 75.3095 18.9472 75.3095C17.9732 75.3095 17.0154 75.2429 16.0783 75.1142L9.37633 79.1859C9.25375 79.2604 9.108 79.3058 8.95539 79.3169C8.80278 79.3281 8.64936 79.3046 8.51231 79.2491C8.37527 79.1935 8.26001 79.1082 8.17945 79.0026C8.0989 78.897 8.05623 78.7754 8.05623 78.6513V72.2311Z" fill="#2C8CF8"/>
</g>
<g filter="url(#filter1_d_781_8517)">
<path d="M48.988 47.6395H42.6328C41.803 47.6395 41.2307 46.7904 41.5259 45.9982L47.8409 29.0524C47.9264 28.8231 48.0779 28.6258 48.2755 28.4865C48.4731 28.3473 48.7074 28.2727 48.9474 28.2727H59.6036C60.4444 28.2727 61.0176 29.1436 60.7002 29.9398L57.0233 39.1665H63.9453C64.9634 39.1665 65.5065 40.3933 64.8351 41.1754L47.8638 60.9453C47.0388 61.9066 45.5092 61.0736 45.8293 59.8376L48.988 47.6395Z" fill="white"/>
</g>
<g filter="url(#filter2_bdii_781_8517)">
<mask id="path-6-inside-1_781_8517" fill="white">
<path fill-rule="evenodd" clip-rule="evenodd" d="M10.4252 67.9007C5.35645 64.7556 2.00006 59.273 2.00006 53.0356C2.00006 43.2757 10.218 35.3638 20.3553 35.3638C30.4926 35.3638 38.7106 43.2757 38.7106 53.0356C38.7106 62.7956 30.4926 70.7075 20.3553 70.7075C19.4672 70.7075 18.5939 70.6468 17.7395 70.5294L11.6289 74.2419C11.5171 74.3098 11.3842 74.3511 11.2451 74.3613C11.1059 74.3715 10.966 74.35 10.8411 74.2994C10.7161 74.2488 10.611 74.171 10.5376 74.0748C10.4641 73.9785 10.4252 73.8676 10.4252 73.7544V67.9007Z"/>
</mask>
<path fill-rule="evenodd" clip-rule="evenodd" d="M10.4252 67.9007C5.35645 64.7556 2.00006 59.273 2.00006 53.0356C2.00006 43.2757 10.218 35.3638 20.3553 35.3638C30.4926 35.3638 38.7106 43.2757 38.7106 53.0356C38.7106 62.7956 30.4926 70.7075 20.3553 70.7075C19.4672 70.7075 18.5939 70.6468 17.7395 70.5294L11.6289 74.2419C11.5171 74.3098 11.3842 74.3511 11.2451 74.3613C11.1059 74.3715 10.966 74.35 10.8411 74.2994C10.7161 74.2488 10.611 74.171 10.5376 74.0748C10.4641 73.9785 10.4252 73.8676 10.4252 73.7544V67.9007Z" fill="#0066FF" fill-opacity="0.13" shape-rendering="crispEdges"/>
<path d="M10.4252 67.9007L10.9525 67.051L11.4252 67.3443V67.9007H10.4252ZM17.7395 70.5294L17.2203 69.6748L17.5238 69.4904L17.8756 69.5387L17.7395 70.5294ZM11.6289 74.2419L12.1481 75.0965L11.6289 74.2419ZM11.2451 74.3613L11.3179 75.3587L11.3179 75.3587L11.2451 74.3613ZM10.8411 74.2994L11.2165 73.3726L11.2165 73.3726L10.8411 74.2994ZM10.5376 74.0748L9.74255 74.6813L9.74255 74.6813L10.5376 74.0748ZM3.00006 53.0356C3.00006 58.9013 6.15511 64.0743 10.9525 67.051L9.898 68.7504C4.55779 65.4369 1.00006 59.6447 1.00006 53.0356H3.00006ZM20.3553 36.3638C10.7342 36.3638 3.00006 43.8634 3.00006 53.0356H1.00006C1.00006 42.688 9.7018 34.3638 20.3553 34.3638V36.3638ZM37.7106 53.0356C37.7106 43.8634 29.9765 36.3638 20.3553 36.3638V34.3638C31.0088 34.3638 39.7106 42.688 39.7106 53.0356H37.7106ZM20.3553 69.7075C29.9765 69.7075 37.7106 62.2078 37.7106 53.0356H39.7106C39.7106 63.3833 31.0088 71.7075 20.3553 71.7075V69.7075ZM17.8756 69.5387C18.685 69.6499 19.5129 69.7075 20.3553 69.7075V71.7075C19.4216 71.7075 18.5028 71.6437 17.6034 71.5201L17.8756 69.5387ZM18.2587 71.3841L12.1481 75.0965L11.1096 73.3873L17.2203 69.6748L18.2587 71.3841ZM12.1481 75.0965C11.8919 75.2521 11.6042 75.3377 11.3179 75.3587L11.1722 73.364C11.1669 73.3644 11.1596 73.3654 11.1501 73.3684C11.1407 73.3713 11.1268 73.3768 11.1096 73.3873L12.1481 75.0965ZM11.3179 75.3587C11.0314 75.3796 10.7377 75.3365 10.4657 75.2263L11.2165 73.3726C11.2045 73.3677 11.1953 73.3656 11.1891 73.3647C11.183 73.3637 11.1775 73.3636 11.1722 73.364L11.3179 75.3587ZM10.4657 75.2263C10.194 75.1163 9.93664 74.9357 9.74255 74.6813L11.3326 73.4682C11.2854 73.4063 11.2383 73.3814 11.2165 73.3726L10.4657 75.2263ZM9.74255 74.6813C9.54608 74.4238 9.42523 74.1026 9.42523 73.7544H11.4252C11.4252 73.6326 11.3822 73.5332 11.3326 73.4682L9.74255 74.6813ZM9.42523 73.7544V67.9007H11.4252V73.7544H9.42523Z" fill="url(#paint1_linear_781_8517)" mask="url(#path-6-inside-1_781_8517)"/>
</g>
<defs>
<filter id="filter0_f_781_8517" x="6.5" y="47.7273" width="59.2368" height="46.1819" filterUnits="userSpaceOnUse" color-interpolation-filters="sRGB">
<feFlood flood-opacity="0" result="BackgroundImageFix"/>
<feBlend mode="normal" in="SourceGraphic" in2="BackgroundImageFix" result="shape"/>
<feGaussianBlur stdDeviation="8" result="effect1_foregroundBlur_781_8517"/>
</filter>
<filter id="filter1_d_781_8517" x="33.4473" y="22.2727" width="39.6842" height="49.0908" filterUnits="userSpaceOnUse" color-interpolation-filters="sRGB">
<feFlood flood-opacity="0" result="BackgroundImageFix"/>
<feColorMatrix in="SourceAlpha" type="matrix" values="0 0 0 0 0 0 0 0 0 0 0 0 0 0 0 0 0 0 127 0" result="hardAlpha"/>
<feOffset dy="2"/>
<feGaussianBlur stdDeviation="4"/>
<feColorMatrix type="matrix" values="0 0 0 0 0 0 0 0 0 0.284091 0 0 0 0 1 0 0 0 0.2 0"/>
<feBlend mode="multiply" in2="BackgroundImageFix" result="effect1_dropShadow_781_8517"/>
<feBlend mode="normal" in="SourceGraphic" in2="effect1_dropShadow_781_8517" result="shape"/>
</filter>
<filter id="filter2_bdii_781_8517" x="-6" y="27.3638" width="54.7106" height="58" filterUnits="userSpaceOnUse" color-interpolation-filters="sRGB">
<feFlood flood-opacity="0" result="BackgroundImageFix"/>
<feGaussianBlur in="BackgroundImage" stdDeviation="4"/>
<feComposite in2="SourceAlpha" operator="in" result="effect1_backgroundBlur_781_8517"/>
<feColorMatrix in="SourceAlpha" type="matrix" values="0 0 0 0 0 0 0 0 0 0 0 0 0 0 0 0 0 0 127 0" result="hardAlpha"/>
<feOffset dx="1" dy="2"/>
<feGaussianBlur stdDeviation="4.5"/>
<feComposite in2="hardAlpha" operator="out"/>
<feColorMatrix type="matrix" values="0 0 0 0 0.176471 0 0 0 0 0.654118 0 0 0 0 1 0 0 0 0.15 0"/>
<feBlend mode="multiply" in2="effect1_backgroundBlur_781_8517" result="effect2_dropShadow_781_8517"/>
<feBlend mode="normal" in="SourceGraphic" in2="effect2_dropShadow_781_8517" result="shape"/>
<feColorMatrix in="SourceAlpha" type="matrix" values="0 0 0 0 0 0 0 0 0 0 0 0 0 0 0 0 0 0 127 0" result="hardAlpha"/>
<feOffset dy="-1"/>
<feGaussianBlur stdDeviation="1"/>
<feComposite in2="hardAlpha" operator="arithmetic" k2="-1" k3="1"/>
<feColorMatrix type="matrix" values="0 0 0 0 0.341667 0 0 0 0 0.68795 0 0 0 0 1 0 0 0 0.15 0"/>
<feBlend mode="normal" in2="shape" result="effect3_innerShadow_781_8517"/>
<feColorMatrix in="SourceAlpha" type="matrix" values="0 0 0 0 0 0 0 0 0 0 0 0 0 0 0 0 0 0 127 0" result="hardAlpha"/>
<feOffset dx="2" dy="4"/>
<feGaussianBlur stdDeviation="6.5"/>
<feComposite in2="hardAlpha" operator="arithmetic" k2="-1" k3="1"/>
<feColorMatrix type="matrix" values="0 0 0 0 1 0 0 0 0 1 0 0 0 0 1 0 0 0 0.35 0"/>
<feBlend mode="normal" in2="effect3_innerShadow_781_8517" result="effect4_innerShadow_781_8517"/>
</filter>
<linearGradient id="paint0_linear_781_8517" x1="36.1183" y1="12.9091" x2="72.12" y2="85.0582" gradientUnits="userSpaceOnUse">
<stop stop-color="#49B3FF"/>
<stop offset="1" stop-color="#346DFF"/>
</linearGradient>
<linearGradient id="paint1_linear_781_8517" x1="3.77637" y1="46.591" x2="38.1062" y2="57.2667" gradientUnits="userSpaceOnUse">
<stop stop-color="white" stop-opacity="0.51"/>
<stop offset="1" stop-color="white" stop-opacity="0"/>
</linearGradient>
</defs>
</svg>
