<svg width="40" height="40" viewBox="0 0 40 40" fill="none" xmlns="http://www.w3.org/2000/svg">
<rect x="-37.5" y="-188.5" width="716" height="310" rx="19.5" stroke="black"/>
<path d="M39 36.0782C39 36.5879 38.801 37.0767 38.4468 37.4371C38.0925 37.7975 37.6121 38 37.1111 38H6.88889C6.38793 38 5.90748 37.7975 5.55324 37.4371C5.19901 37.0767 5 36.5879 5 36.0782V15.8804C4.9998 15.5875 5.06539 15.2985 5.19175 15.0354C5.31812 14.7723 5.50192 14.542 5.72911 14.3622L20.8402 2.40491C21.1718 2.14248 21.5799 2 22 2C22.4201 2 22.8282 2.14248 23.1598 2.40491L38.2709 14.3622C38.4981 14.542 38.6819 14.7723 38.8082 15.0354C38.9346 15.2985 39.0002 15.5875 39 15.8804V36.0782ZM20.1111 24.5476V32.2347C20.1111 32.7444 20.3101 33.2332 20.6644 33.5936C21.0186 33.954 21.499 34.1565 22 34.1565C22.501 34.1565 22.9814 33.954 23.3356 33.5936C23.6899 33.2332 23.8889 32.7444 23.8889 32.2347V24.5476C23.8889 24.0379 23.6899 23.5491 23.3356 23.1887C22.9814 22.8283 22.501 22.6258 22 22.6258C21.499 22.6258 21.0186 22.8283 20.6644 23.1887C20.3101 23.5491 20.1111 24.0379 20.1111 24.5476V24.5476Z" fill="#E5EEED"/>
</svg>
