<svg width="40" height="40" viewBox="0 0 40 40" fill="none" xmlns="http://www.w3.org/2000/svg">
<rect x="-39.5" y="-44.5" width="716" height="310" rx="19.5" stroke="black"/>
<path d="M37 36.0782C37 36.5879 36.801 37.0767 36.4468 37.4371C36.0925 37.7975 35.6121 38 35.1111 38H4.88889C4.38793 38 3.90748 37.7975 3.55324 37.4371C3.19901 37.0767 3 36.5879 3 36.0782V15.8804C2.9998 15.5875 3.06539 15.2985 3.19175 15.0354C3.31812 14.7723 3.50192 14.542 3.72911 14.3622L18.8402 2.40491C19.1718 2.14248 19.5799 2 20 2C20.4201 2 20.8282 2.14248 21.1598 2.40491L36.2709 14.3622C36.4981 14.542 36.6819 14.7723 36.8082 15.0354C36.9346 15.2985 37.0002 15.5875 37 15.8804V36.0782ZM18.1111 24.5476V32.2347C18.1111 32.7444 18.3101 33.2332 18.6644 33.5936C19.0186 33.954 19.499 34.1565 20 34.1565C20.501 34.1565 20.9814 33.954 21.3356 33.5936C21.6899 33.2332 21.8889 32.7444 21.8889 32.2347V24.5476C21.8889 24.0379 21.6899 23.5491 21.3356 23.1887C20.9814 22.8283 20.501 22.6258 20 22.6258C19.499 22.6258 19.0186 22.8283 18.6644 23.1887C18.3101 23.5491 18.1111 24.0379 18.1111 24.5476V24.5476Z" fill="#16C2A3"/>
</svg>
