<svg width="40" height="40" viewBox="0 0 40 40" fill="none" xmlns="http://www.w3.org/2000/svg">
<rect x="-466.5" y="-188.5" width="716" height="310" rx="19.5" stroke="black"/>
<path d="M20.9991 2C24.1849 1.99972 27.2881 2.97331 29.859 4.77971C32.4299 6.58611 34.3349 9.13148 35.2981 12.047C36.2612 14.9625 36.2325 18.0967 35.216 20.9955C34.1995 23.8943 32.2481 26.4071 29.6444 28.1697L33.5499 36.7381C33.6127 36.8753 33.6387 37.0253 33.6258 37.1746C33.6129 37.3239 33.5613 37.4677 33.4759 37.593C33.3904 37.7183 33.2737 37.8212 33.1364 37.8922C32.999 37.9633 32.8454 38.0004 32.6893 38H9.30878C9.153 38.0002 8.99962 37.9632 8.8625 37.8922C8.72538 37.8212 8.60884 37.7186 8.52342 37.5935C8.438 37.4684 8.38639 37.3249 8.37325 37.1759C8.36012 37.0268 8.38587 36.877 8.44818 36.7399L12.3537 28.1697H12.3556C9.75207 26.4071 7.80069 23.8945 6.78415 20.9959C5.7676 18.0973 5.7387 14.9633 6.70163 12.0479C7.66456 9.13243 9.5693 6.58705 12.1399 4.78051C14.7105 2.97397 17.8134 2.0001 20.9991 2V2ZM17.3804 17.4214C17.1654 17.0139 16.7971 16.7002 16.3501 16.5438C15.9031 16.3873 15.4109 16.3999 14.9732 16.5789C14.5355 16.7579 14.185 17.0899 13.9928 17.5077C13.8006 17.9255 13.781 18.3979 13.938 18.829C14.4584 20.2252 15.4151 21.433 16.6773 22.2875C17.9396 23.1421 19.4458 23.6016 20.9903 23.6034C22.5348 23.6051 24.0422 23.1491 25.3066 22.2974C26.5709 21.4458 27.5306 20.2402 28.0545 18.8452C28.2236 18.3962 28.1999 17.9011 27.9888 17.4689C27.7776 17.0366 27.3963 16.7025 26.9286 16.5402C26.4609 16.3779 25.9452 16.4006 25.495 16.6033C25.0447 16.806 24.6968 17.1722 24.5277 17.6212C24.2652 18.3182 23.7852 18.9205 23.153 19.3459C22.5209 19.7713 21.7675 19.9992 20.9955 19.9984C20.2235 19.9976 19.4706 19.7682 18.8394 19.3415C18.2082 18.9148 17.7295 18.3115 17.4685 17.614L17.3804 17.4214Z" fill="#E5EEED"/>
</svg>
