<svg width="40" height="40" viewBox="0 0 40 40" fill="none" xmlns="http://www.w3.org/2000/svg">
<rect x="-467.5" y="-44.5" width="716" height="310" rx="19.5" stroke="black"/>
<path d="M19.9991 2C23.1849 1.99972 26.2881 2.97331 28.859 4.77971C31.4299 6.58611 33.3349 9.13148 34.2981 12.047C35.2612 14.9625 35.2325 18.0967 34.216 20.9955C33.1995 23.8943 31.2481 26.4071 28.6444 28.1697L32.5499 36.7381C32.6127 36.8753 32.6387 37.0253 32.6258 37.1746C32.6129 37.3239 32.5613 37.4677 32.4759 37.593C32.3904 37.7183 32.2737 37.8212 32.1364 37.8922C31.999 37.9633 31.8454 38.0004 31.6893 38H8.30878C8.153 38.0002 7.99962 37.9632 7.8625 37.8922C7.72538 37.8212 7.60884 37.7186 7.52342 37.5935C7.438 37.4684 7.38639 37.3249 7.37325 37.1759C7.36012 37.0268 7.38587 36.877 7.44818 36.7399L11.3537 28.1697H11.3556C8.75207 26.4071 6.80069 23.8945 5.78415 20.9959C4.7676 18.0973 4.7387 14.9633 5.70163 12.0479C6.66456 9.13243 8.5693 6.58705 11.1399 4.78051C13.7105 2.97397 16.8134 2.0001 19.9991 2V2ZM16.3804 17.4214C16.1654 17.0139 15.7971 16.7002 15.3501 16.5438C14.9031 16.3873 14.4109 16.3999 13.9732 16.5789C13.5355 16.7579 13.185 17.0899 12.9928 17.5077C12.8006 17.9255 12.781 18.3979 12.938 18.829C13.4584 20.2252 14.4151 21.433 15.6773 22.2875C16.9396 23.1421 18.4458 23.6016 19.9903 23.6034C21.5348 23.6051 23.0422 23.1491 24.3066 22.2974C25.5709 21.4458 26.5306 20.2402 27.0545 18.8452C27.2236 18.3962 27.1999 17.9011 26.9888 17.4689C26.7776 17.0366 26.3963 16.7025 25.9286 16.5402C25.4609 16.3779 24.9452 16.4006 24.495 16.6033C24.0447 16.806 23.6968 17.1722 23.5277 17.6212C23.2652 18.3182 22.7852 18.9205 22.153 19.3459C21.5209 19.7713 20.7675 19.9992 19.9955 19.9984C19.2235 19.9976 18.4706 19.7682 17.8394 19.3415C17.2082 18.9148 16.7295 18.3115 16.4685 17.614L16.3804 17.4214Z" fill="#16C2A3"/>
</svg>
