<svg width="40" height="40" viewBox="0 0 40 40" fill="none" xmlns="http://www.w3.org/2000/svg">
<rect x="-323.5" y="-188.5" width="716" height="310" rx="19.5" stroke="black"/>
<path d="M34.6 27.7143H36.3C36.7509 27.7143 37.1833 27.8949 37.5021 28.2164C37.8209 28.5379 38 28.9739 38 29.4286C38 29.8832 37.8209 30.3193 37.5021 30.6408C37.1833 30.9622 36.7509 31.1429 36.3 31.1429H5.7C5.24913 31.1429 4.81673 30.9622 4.49792 30.6408C4.17911 30.3193 4 29.8832 4 29.4286C4 28.9739 4.17911 28.5379 4.49792 28.2164C4.81673 27.8949 5.24913 27.7143 5.7 27.7143H7.4V15.7143C7.4 12.077 8.83285 8.58875 11.3833 6.01682C13.9338 3.44489 17.3931 2 21 2C24.6069 2 28.0662 3.44489 30.6167 6.01682C33.1671 8.58875 34.6 12.077 34.6 15.7143V27.7143ZM17.6 34.5714H24.4C24.8508 34.5715 25.2832 34.7521 25.6019 35.0736C25.9207 35.3951 26.0997 35.8311 26.0997 36.2857C26.0997 36.7403 25.9207 37.1763 25.6019 37.4978C25.2832 37.8193 24.8508 37.9999 24.4 38H17.6C17.1492 37.9999 16.7168 37.8193 16.3981 37.4978C16.0793 37.1763 15.9003 36.7403 15.9003 36.2857C15.9003 35.8311 16.0793 35.3951 16.3981 35.0736C16.7168 34.7521 17.1492 34.5715 17.6 34.5714Z" fill="#E5EEED"/>
<path d="M26.4642 6.3394C25.8233 6.08301 25.0958 6.39478 24.8394 7.03576C24.583 7.67674 24.8948 8.4042 25.5358 8.6606L26.4642 6.3394ZM29.2743 13.2451C29.4097 13.9221 30.0682 14.3611 30.7451 14.2257C31.4221 14.0903 31.8611 13.4318 31.7257 12.7549L29.2743 13.2451ZM25.5358 8.6606C27.6105 9.4905 28.8499 11.1232 29.2743 13.2451L31.7257 12.7549C31.1501 9.87677 29.3895 7.5095 26.4642 6.3394L25.5358 8.6606Z" fill="white"/>
</svg>
