<svg width="40" height="40" viewBox="0 0 40 40" fill="none" xmlns="http://www.w3.org/2000/svg">
<rect x="-324.5" y="-44.5" width="716" height="310" rx="19.5" stroke="black"/>
<path d="M33.6 27.7143H35.3C35.7509 27.7143 36.1833 27.8949 36.5021 28.2164C36.8209 28.5379 37 28.9739 37 29.4286C37 29.8832 36.8209 30.3193 36.5021 30.6408C36.1833 30.9622 35.7509 31.1429 35.3 31.1429H4.7C4.24913 31.1429 3.81673 30.9622 3.49792 30.6408C3.17911 30.3193 3 29.8832 3 29.4286C3 28.9739 3.17911 28.5379 3.49792 28.2164C3.81673 27.8949 4.24913 27.7143 4.7 27.7143H6.4V15.7143C6.4 12.077 7.83285 8.58875 10.3833 6.01682C12.9338 3.44489 16.3931 2 20 2C23.6069 2 27.0662 3.44489 29.6167 6.01682C32.1671 8.58875 33.6 12.077 33.6 15.7143V27.7143ZM16.6 34.5714H23.4C23.8508 34.5715 24.2832 34.7521 24.6019 35.0736C24.9207 35.3951 25.0997 35.8311 25.0997 36.2857C25.0997 36.7403 24.9207 37.1763 24.6019 37.4978C24.2832 37.8193 23.8508 37.9999 23.4 38H16.6C16.1492 37.9999 15.7168 37.8193 15.3981 37.4978C15.0793 37.1763 14.9003 36.7403 14.9003 36.2857C14.9003 35.8311 15.0793 35.3951 15.3981 35.0736C15.7168 34.7521 16.1492 34.5715 16.6 34.5714Z" fill="#16C2A3"/>
<path d="M25.4642 6.3394C24.8233 6.08301 24.0958 6.39478 23.8394 7.03576C23.583 7.67674 23.8948 8.4042 24.5358 8.6606L25.4642 6.3394ZM28.2743 13.2451C28.4097 13.9221 29.0682 14.3611 29.7451 14.2257C30.4221 14.0903 30.8611 13.4318 30.7257 12.7549L28.2743 13.2451ZM24.5358 8.6606C26.6105 9.4905 27.8499 11.1232 28.2743 13.2451L30.7257 12.7549C30.1501 9.87677 28.3895 7.5095 25.4642 6.3394L24.5358 8.6606Z" fill="white"/>
</svg>
