<svg width="34" height="34" viewBox="0 0 34 34" fill="none" xmlns="http://www.w3.org/2000/svg" xmlns:xlink="http://www.w3.org/1999/xlink" version="1.1">
<path d="M29.7558 28.7442L24.5 23.5308C26.5401 20.9871 27.5281 17.7583 27.2608 14.5085C26.9935 11.2587 25.4912 8.23476 23.0628 6.05857C20.6344 3.88237 17.4645 2.71929 14.205 2.80849C10.9454 2.89768 7.84384 4.23237 5.5381 6.5381C3.23237 8.84384 1.89768 11.9454 1.80849 15.205C1.71929 18.4645 2.88237 21.6344 5.05857 24.0628C7.23476 26.4912 10.2587 27.9935 13.5085 28.2608C16.7583 28.5281 19.9871 27.5401 22.5308 25.5L27.7442 30.7133C27.8759 30.8461 28.0325 30.9515 28.2052 31.0234C28.3778 31.0953 28.563 31.1324 28.75 31.1324C28.937 31.1324 29.1222 31.0953 29.2948 31.0234C29.4674 30.9515 29.6241 30.8461 29.7558 30.7133C30.0112 30.4492 30.1539 30.0961 30.1539 29.7287C30.1539 29.3613 30.0112 29.0083 29.7558 28.7442V28.7442ZM14.5833 25.5C12.622 25.5 10.7047 24.9184 9.07391 23.8287C7.44313 22.7391 6.17208 21.1903 5.42151 19.3783C4.67095 17.5662 4.47456 15.5723 4.8572 13.6487C5.23984 11.725 6.18431 9.95805 7.57118 8.57118C8.95805 7.18431 10.725 6.23984 12.6487 5.8572C14.5723 5.47456 16.5662 5.67095 18.3783 6.42151C20.1903 7.17208 21.7391 8.44313 22.8287 10.0739C23.9184 11.7047 24.5 13.622 24.5 15.5833C24.5 18.2134 23.4552 20.7357 21.5955 22.5955C19.7357 24.4552 17.2134 25.5 14.5833 25.5V25.5Z" fill="#C3C3C5"/>
<rect x="-30.5" y="-93.5" width="716" height="310" rx="19.5" stroke="black"/>
</svg>
