<svg width="32" height="32" viewBox="0 0 32 32" fill="none" xmlns="http://www.w3.org/2000/svg">
<rect x="-728" y="-74" width="690" height="180" rx="8" fill="#FAFAFA"/>
<path d="M14.6667 5.33331H5.33335C4.62611 5.33331 3.94783 5.61426 3.44774 6.11436C2.94764 6.61446 2.66669 7.29273 2.66669 7.99998V26.6666C2.66669 27.3739 2.94764 28.0522 3.44774 28.5523C3.94783 29.0524 4.62611 29.3333 5.33335 29.3333H24C24.7073 29.3333 25.3855 29.0524 25.8856 28.5523C26.3857 28.0522 26.6667 27.3739 26.6667 26.6666V17.3333M24.6667 3.33331C25.1971 2.80288 25.9165 2.50488 26.6667 2.50488C27.4168 2.50488 28.1363 2.80288 28.6667 3.33331C29.1971 3.86374 29.4951 4.58316 29.4951 5.33331C29.4951 6.08346 29.1971 6.80288 28.6667 7.33331L16 20L10.6667 21.3333L12 16L24.6667 3.33331Z" stroke="#848484" stroke-width="2" stroke-linecap="round" stroke-linejoin="round"/>
<rect x="-776.5" y="-1021.5" width="2535" height="1373" rx="39.5" stroke="#EF5533"/>
</svg>
