<svg width="54" height="54" viewBox="0 0 54 54" fill="none" xmlns="http://www.w3.org/2000/svg">
<rect x="-396.5" y="-94.5" width="882" height="200" rx="19.5" stroke="black"/>
<g filter="url(#filter0_i_1189_10832)">
<path d="M0.536675 18.6366C1.58332 9.08599 9.08702 1.58585 18.6375 0.537995C21.5471 0.218755 24.4656 0 26.9999 0C29.5447 0 32.4767 0.220567 35.3983 0.541957C44.9303 1.59052 52.4333 9.06494 53.4815 18.597C53.784 21.3482 53.9917 24.0975 53.9997 26.5007C54.0088 29.1786 53.7798 32.2691 53.4449 35.3338C52.3999 44.8975 44.9011 52.4197 35.3376 53.466C32.4394 53.7831 29.5315 54 26.9999 54C24.4586 54 21.5381 53.7814 18.6289 53.4623C9.08248 52.4154 1.58439 44.917 0.537576 35.3707C0.21856 32.4614 0 29.5409 0 26.9995C0 24.4606 0.218148 21.5432 0.536675 18.6366Z" fill="url(#paint0_linear_1189_10832)"/>
</g>
<g opacity="0.8" filter="url(#filter1_d_1189_10832)">
<path d="M36.7088 21.9417L40.759 28.1663C40.8265 28.2706 40.8625 28.3922 40.8625 28.5165V35.8465C40.8625 36.0506 40.6951 36.218 40.491 36.218H39.7937C39.6566 38.0087 38.1736 39.4247 36.3494 39.4247C34.5222 39.4247 33.0422 38.0087 32.9052 36.218H30.8496V21.6768H36.2215C36.4164 21.6768 36.6022 21.7773 36.7088 21.9417ZM35.8287 24.9109H31.949C31.8881 24.9109 31.8393 24.9596 31.8393 25.0205V28.2455C31.8393 28.3033 31.8881 28.352 31.9459 28.352H38.0944C38.1461 28.352 38.1796 28.2942 38.1492 28.2485L36.0418 25.0205C35.9931 24.9535 35.9139 24.9109 35.8287 24.9109V24.9109ZM20.7514 32.4815C22.67 32.4815 24.2231 34.0346 24.2231 35.9531C24.2231 37.8716 22.67 39.4247 20.7514 39.4247C18.8329 39.4247 17.2798 37.8716 17.2798 35.9531C17.2798 34.0346 18.8359 32.4815 20.7514 32.4815Z" fill="white"/>
</g>
<g filter="url(#filter2_d_1189_10832)">
<path d="M15.4801 15.4248H29.0256C30.0305 15.4248 30.8467 16.2409 30.8467 17.2459V36.2181H15.4801C14.4752 36.2181 13.659 35.4019 13.659 34.397V17.2459C13.659 16.2409 14.4721 15.4248 15.4801 15.4248V15.4248Z" fill="white"/>
</g>
<rect x="-447.5" y="-1250.5" width="1045" height="1481" rx="39.5" stroke="#EF5533"/>
<defs>
<filter id="filter0_i_1189_10832" x="0" y="0" width="55" height="56" filterUnits="userSpaceOnUse" color-interpolation-filters="sRGB">
<feFlood flood-opacity="0" result="BackgroundImageFix"/>
<feBlend mode="normal" in="SourceGraphic" in2="BackgroundImageFix" result="shape"/>
<feColorMatrix in="SourceAlpha" type="matrix" values="0 0 0 0 0 0 0 0 0 0 0 0 0 0 0 0 0 0 127 0" result="hardAlpha"/>
<feOffset dx="1" dy="2"/>
<feGaussianBlur stdDeviation="2"/>
<feComposite in2="hardAlpha" operator="arithmetic" k2="-1" k3="1"/>
<feColorMatrix type="matrix" values="0 0 0 0 1 0 0 0 0 1 0 0 0 0 1 0 0 0 0.4 0"/>
<feBlend mode="multiply" in2="shape" result="effect1_innerShadow_1189_10832"/>
</filter>
<filter id="filter1_d_1189_10832" x="9.27979" y="14.6768" width="39.5828" height="33.748" filterUnits="userSpaceOnUse" color-interpolation-filters="sRGB">
<feFlood flood-opacity="0" result="BackgroundImageFix"/>
<feColorMatrix in="SourceAlpha" type="matrix" values="0 0 0 0 0 0 0 0 0 0 0 0 0 0 0 0 0 0 127 0" result="hardAlpha"/>
<feOffset dy="1"/>
<feGaussianBlur stdDeviation="4"/>
<feComposite in2="hardAlpha" operator="out"/>
<feColorMatrix type="matrix" values="0 0 0 0 0.827451 0 0 0 0 0.498667 0 0 0 0 0.313725 0 0 0 0.23 0"/>
<feBlend mode="multiply" in2="BackgroundImageFix" result="effect1_dropShadow_1189_10832"/>
<feBlend mode="normal" in="SourceGraphic" in2="effect1_dropShadow_1189_10832" result="shape"/>
</filter>
<filter id="filter2_d_1189_10832" x="5.65894" y="8.4248" width="33.1877" height="36.7935" filterUnits="userSpaceOnUse" color-interpolation-filters="sRGB">
<feFlood flood-opacity="0" result="BackgroundImageFix"/>
<feColorMatrix in="SourceAlpha" type="matrix" values="0 0 0 0 0 0 0 0 0 0 0 0 0 0 0 0 0 0 127 0" result="hardAlpha"/>
<feOffset dy="1"/>
<feGaussianBlur stdDeviation="4"/>
<feComposite in2="hardAlpha" operator="out"/>
<feColorMatrix type="matrix" values="0 0 0 0 0.8375 0 0 0 0 0.505292 0 0 0 0 0.362917 0 0 0 0.23 0"/>
<feBlend mode="multiply" in2="BackgroundImageFix" result="effect1_dropShadow_1189_10832"/>
<feBlend mode="normal" in="SourceGraphic" in2="effect1_dropShadow_1189_10832" result="shape"/>
</filter>
<linearGradient id="paint0_linear_1189_10832" x1="12.5" y1="-4.5" x2="61.4706" y2="24.6177" gradientUnits="userSpaceOnUse">
<stop stop-color="#FFB8C5"/>
<stop offset="1" stop-color="#FF3232"/>
</linearGradient>
</defs>
</svg>
