<svg width="54" height="54" viewBox="0 0 54 54" fill="none" xmlns="http://www.w3.org/2000/svg">
<rect x="-218.5" y="-94.5" width="882" height="200" rx="19.5" stroke="black"/>
<g filter="url(#filter0_i_1189_10832)">
<path d="M0.536675 18.6366C1.58332 9.08599 9.08702 1.58585 18.6375 0.537995C21.5471 0.218755 24.4656 0 26.9999 0C29.5447 0 32.4767 0.220567 35.3983 0.541957C44.9303 1.59052 52.4333 9.06494 53.4815 18.597C53.784 21.3482 53.9917 24.0975 53.9997 26.5007C54.0088 29.1786 53.7798 32.2691 53.4449 35.3338C52.3999 44.8975 44.9011 52.4197 35.3376 53.466C32.4394 53.7831 29.5315 54 26.9999 54C24.4586 54 21.5381 53.7814 18.6289 53.4623C9.08248 52.4154 1.58439 44.917 0.537576 35.3707C0.21856 32.4614 0 29.5409 0 26.9995C0 24.4606 0.218148 21.5432 0.536675 18.6366Z" fill="url(#paint0_linear_1189_10832)"/>
</g>
<path d="M22.008 22.7826V27.0765C22.008 27.2257 22.0456 27.3718 22.117 27.5028L22.1588 27.5717C22.2823 27.7553 22.4701 27.8862 22.6851 27.9385C22.9002 27.9909 23.1271 27.9609 23.3212 27.8544L26.9437 25.8708L30.6115 27.8576C30.7466 27.9308 30.8984 27.9677 31.0521 27.9645C31.2057 27.9614 31.3559 27.9184 31.488 27.8398C31.62 27.7611 31.7293 27.6495 31.8053 27.5159C31.8812 27.3823 31.9211 27.2312 31.921 27.0776V22.7826H39V35.8261C39 36.3796 38.7801 36.9104 38.3887 37.3018C37.9974 37.6932 37.4665 37.913 36.913 37.913H17.087C16.5335 37.913 16.0026 37.6932 15.6113 37.3018C15.2199 36.9104 15 36.3796 15 35.8261V22.7826H22.008V22.7826ZM36.913 16C37.4665 16 37.9974 16.2199 38.3887 16.6113C38.7801 17.0026 39 17.5335 39 18.087V21.2174H31.921V16H36.913ZM15 18.087C15 17.5335 15.2199 17.0026 15.6113 16.6113C16.0026 16.2199 16.5335 16 17.087 16H22.008V21.2174H15V18.087V18.087Z" fill="white"/>
<path d="M30.3913 25.913L27.3996 24.292L27.3187 24.2529C27.196 24.2017 27.0634 24.1788 26.9306 24.1858C26.7979 24.1929 26.6684 24.2297 26.5518 24.2936L23.6086 25.9068V16H30.3913V25.913Z" fill="white" fill-opacity="0.8"/>
<rect x="-269.5" y="-1250.5" width="1045" height="1481" rx="39.5" stroke="#EF5533"/>
<defs>
<filter id="filter0_i_1189_10832" x="0" y="0" width="55" height="56" filterUnits="userSpaceOnUse" color-interpolation-filters="sRGB">
<feFlood flood-opacity="0" result="BackgroundImageFix"/>
<feBlend mode="normal" in="SourceGraphic" in2="BackgroundImageFix" result="shape"/>
<feColorMatrix in="SourceAlpha" type="matrix" values="0 0 0 0 0 0 0 0 0 0 0 0 0 0 0 0 0 0 127 0" result="hardAlpha"/>
<feOffset dx="1" dy="2"/>
<feGaussianBlur stdDeviation="2"/>
<feComposite in2="hardAlpha" operator="arithmetic" k2="-1" k3="1"/>
<feColorMatrix type="matrix" values="0 0 0 0 1 0 0 0 0 1 0 0 0 0 1 0 0 0 0.4 0"/>
<feBlend mode="multiply" in2="shape" result="effect1_innerShadow_1189_10832"/>
</filter>
<linearGradient id="paint0_linear_1189_10832" x1="7" y1="2" x2="57.1471" y2="23.9118" gradientUnits="userSpaceOnUse">
<stop stop-color="#93AAFF"/>
<stop offset="1" stop-color="#4B70F1"/>
</linearGradient>
</defs>
</svg>
