<svg width="40" height="40" viewBox="0 0 40 40" fill="none" xmlns="http://www.w3.org/2000/svg">
<rect x="-275.5" y="-256.5" width="882" height="354" rx="19.5" stroke="black"/>
<path d="M20.3272 34C19.6203 34 19.0471 33.4538 19.0471 32.7801C19.0471 32.1064 19.6203 31.5602 20.3272 31.5602C24.6529 31.5602 28.6273 29.2472 30.6999 25.524C31.0305 24.9287 31.8036 24.7008 32.4305 25.018C33.0549 25.3337 33.2924 26.072 32.9612 26.6671C30.4436 31.1903 25.6029 34 20.3272 34ZM33.4124 21.2198C32.7055 21.2198 32.1324 20.6735 32.1324 19.9999C32.1324 13.6257 26.8367 8.43984 20.3272 8.43984C13.8183 8.43984 8.52316 13.6257 8.52316 19.9999C8.52316 20.6735 7.95004 21.2198 7.24315 21.2198C6.53626 21.2198 5.96313 20.6735 5.96313 19.9999C5.96313 12.2804 12.407 6 20.3272 6C28.248 6 34.6925 12.2804 34.6925 19.9999C34.6924 20.6735 34.1193 21.2198 33.4124 21.2198Z" fill="#3C3E42"/>
<path d="M7.24256 27.479C5.45441 27.479 4 26.0645 4 24.3257V21.6232C4 19.8847 5.45441 18.4702 7.24256 18.4702C9.03071 18.4702 10.4851 19.8847 10.4851 21.6232V24.3257C10.4851 26.0644 9.03071 27.479 7.24256 27.479ZM7.24256 20.9595C6.86631 20.9595 6.56003 21.2572 6.56003 21.6231V24.3257C6.56003 24.6919 6.86627 24.9897 7.24256 24.9897C7.61884 24.9897 7.92509 24.6919 7.92509 24.3257V21.6231C7.92506 21.2572 7.61881 20.9595 7.24256 20.9595ZM32.7574 27.479C30.9693 27.479 29.5149 26.0645 29.5149 24.3257V21.6232C29.5149 19.8847 30.9693 18.4702 32.7574 18.4702C34.5456 18.4702 36 19.8847 36 21.6232V24.3257C36 26.0644 34.5456 27.479 32.7574 27.479ZM32.7574 20.9595C32.3812 20.9595 32.0749 21.2572 32.0749 21.6231V24.3257C32.0749 24.6919 32.3812 24.9897 32.7574 24.9897C33.1337 24.9897 33.44 24.6919 33.44 24.3257V21.6231C33.44 21.2572 33.1337 20.9595 32.7574 20.9595Z" fill="#3C3E42"/>
<path d="M20.3278 25.6933C18.3384 25.6933 16.5152 25.0797 15.4502 24.0519C14.9533 23.5724 14.9583 22.8001 15.4615 22.3269C15.9646 21.8533 16.7753 21.8575 17.2715 22.3376C17.7097 22.76 18.7728 23.2535 20.3279 23.2535C21.8829 23.2535 22.9461 22.76 23.3842 22.3376C23.8804 21.8581 24.6917 21.8533 25.1942 22.3269C25.6974 22.8001 25.7024 23.5724 25.2055 24.0519C24.1404 25.0797 22.3172 25.6933 20.3278 25.6933Z" fill="#16C2A3"/>
<rect x="-326.5" y="-562.5" width="1045" height="1481" rx="39.5" stroke="#EF5533"/>
</svg>
