<svg width="40" height="40" viewBox="0 0 40 40" fill="none" xmlns="http://www.w3.org/2000/svg">
<rect x="-489.5" y="-256.5" width="882" height="354" rx="19.5" stroke="black"/>
<path d="M26.743 6H13.2413C12.8018 5.99994 12.3702 6.11354 11.9901 6.32928C11.6101 6.54501 11.2953 6.8552 11.0775 7.22835L4.32725 18.7936C4.11279 19.1611 4 19.5769 4 20C4 20.4231 4.11279 20.8389 4.32725 21.2064L11.0775 32.7717C11.2953 33.1448 11.6101 33.455 11.9901 33.6707C12.3702 33.8865 12.8018 34.0001 13.2413 34H26.743C27.1819 34 27.613 33.8866 27.9926 33.6713C28.3723 33.456 28.687 33.1465 28.9049 32.7741L35.6713 21.2089C35.8867 20.8408 36 20.4241 36 20C36 19.5759 35.8867 19.1592 35.6713 18.7911L28.9049 7.22591C28.687 6.85358 28.3724 6.54411 27.9929 6.32884C27.6134 6.11356 27.1824 6.00012 26.7436 6H26.743ZM13.2413 8.43478H26.743L33.5095 20L26.743 31.5652H13.2413L6.49037 20L13.2413 8.43478Z" fill="#3C3E42"/>
<path d="M20.0003 14.5217C19.2644 14.5217 18.5357 14.6634 17.8558 14.9387C17.1759 15.214 16.5581 15.6176 16.0377 16.1263C15.5173 16.635 15.1046 17.2389 14.8229 17.9035C14.5413 18.5682 14.3964 19.2806 14.3964 20C14.3964 20.7194 14.5413 21.4318 14.8229 22.0964C15.1046 22.7611 15.5173 23.365 16.0377 23.8737C16.5581 24.3824 17.1759 24.7859 17.8558 25.0612C18.5357 25.3366 19.2644 25.4782 20.0003 25.4782C21.4866 25.4782 22.9119 24.9011 23.9629 23.8737C25.0138 22.8463 25.6042 21.4529 25.6042 20C25.6042 18.5471 25.0138 17.1536 23.9629 16.1263C22.9119 15.0989 21.4866 14.5217 20.0003 14.5217ZM20.0003 16.9565C20.4091 16.9565 20.814 17.0352 21.1917 17.1882C21.5694 17.3411 21.9126 17.5653 22.2017 17.8479C22.4908 18.1305 22.7202 18.466 22.8766 18.8353C23.0331 19.2046 23.1136 19.6003 23.1136 20C23.1136 20.3997 23.0331 20.7954 22.8766 21.1647C22.7202 21.5339 22.4908 21.8694 22.2017 22.1521C21.9126 22.4347 21.5694 22.6588 21.1917 22.8118C20.814 22.9647 20.4091 23.0435 20.0003 23.0435C19.1746 23.0435 18.3827 22.7228 17.7989 22.1521C17.215 21.5813 16.887 20.8072 16.887 20C16.887 19.1928 17.215 18.4187 17.7989 17.8479C18.3827 17.2772 19.1746 16.9565 20.0003 16.9565Z" fill="#16C2A3"/>
<rect x="-540.5" y="-562.5" width="1045" height="1481" rx="39.5" stroke="#EF5533"/>
</svg>
