<svg width="40" height="40" viewBox="0 0 40 40" fill="none" xmlns="http://www.w3.org/2000/svg">
<rect x="-61.5" y="-118.5" width="882" height="354" rx="19.5" stroke="black"/>
<path fill-rule="evenodd" clip-rule="evenodd" d="M26.2703 10.9207L25.5944 7.89649C25.3884 7.38516 24.9046 7.04531 24.3701 7.04531H15.63C15.0955 7.04531 14.6118 7.38516 14.4057 7.89649L13.7299 10.9207H26.2703ZM28.279 10.9207L27.4816 7.36022C27.4726 7.31657 27.4607 7.27603 27.4457 7.2355C26.971 5.89794 25.7318 5 24.3671 5H15.627C14.9522 5 14.3042 5.21201 13.7518 5.61422C13.1994 6.01642 12.7843 6.57763 12.5484 7.2355C12.5335 7.27603 12.5216 7.31657 12.5126 7.36022L11.7178 10.9207H9.3981C7.52586 10.9207 6 12.5108 6 14.4688V31.4517C6 33.4066 7.52288 34.9998 9.3981 34.9998H30.6019C32.4771 34.9998 34 33.4066 34 31.4517V14.4688C34 12.5139 32.4771 10.9207 30.6019 10.9207H28.279ZM32.0412 17.1721V14.4688C32.0412 13.6394 31.3962 12.966 30.6019 12.966H9.3981C8.60382 12.966 7.95884 13.6394 7.95884 14.4688V17.1721H32.0412ZM7.95884 19.2174H32.0412V31.4517C32.0412 32.2811 31.3962 32.9545 30.6019 32.9545H9.3981C8.60382 32.9545 7.95884 32.2811 7.95884 31.4517V19.2174Z" fill="#3C3E42"/>
<path d="M25.5944 7.89649L25.7408 7.86377L25.7381 7.8518L25.7335 7.84043L25.5944 7.89649ZM26.2703 10.9207V11.0707H26.4575L26.4167 10.8879L26.2703 10.9207ZM14.4057 7.89649L14.2666 7.84043L14.262 7.8518L14.2594 7.86377L14.4057 7.89649ZM13.7299 10.9207L13.5835 10.8879L13.5426 11.0707H13.7299V10.9207ZM28.279 10.9207L28.1326 10.9534L28.1588 11.0707H28.279V10.9207ZM27.4816 7.36022L27.3346 7.39038L27.3352 7.393L27.4816 7.36022ZM27.4457 7.2355L27.3044 7.28568L27.305 7.28735L27.4457 7.2355ZM13.7518 5.61422L13.8401 5.73548V5.73548L13.7518 5.61422ZM12.5484 7.2355L12.6892 7.28735L12.6896 7.28613L12.5484 7.2355ZM12.5126 7.36022L12.659 7.3929L12.6595 7.39037L12.5126 7.36022ZM11.7178 10.9207V11.0707H11.838L11.8642 10.9533L11.7178 10.9207ZM32.0412 17.1721V17.3221H32.1912V17.1721H32.0412ZM7.95884 17.1721H7.80884V17.3221H7.95884V17.1721ZM7.95884 19.2174V19.0674H7.80884V19.2174H7.95884ZM32.0412 19.2174H32.1912V19.0674H32.0412V19.2174ZM25.448 7.9292L26.1239 10.9534L26.4167 10.8879L25.7408 7.86377L25.448 7.9292ZM24.3701 7.19531C24.8398 7.19531 25.2707 7.49458 25.4553 7.95255L25.7335 7.84043C25.506 7.27574 24.9694 6.89531 24.3701 6.89531V7.19531ZM15.63 7.19531H24.3701V6.89531H15.63V7.19531ZM14.5449 7.95255C14.7294 7.49458 15.1603 7.19531 15.63 7.19531V6.89531C15.0307 6.89531 14.4942 7.27574 14.2666 7.84043L14.5449 7.95255ZM13.8763 10.9534L14.5521 7.9292L14.2594 7.86377L13.5835 10.8879L13.8763 10.9534ZM13.7299 11.0707H26.2703V10.7707H13.7299V11.0707ZM28.4253 10.8879L27.6279 7.32743L27.3352 7.393L28.1326 10.9534L28.4253 10.8879ZM27.6285 7.33006C27.6179 7.27832 27.6038 7.23053 27.5865 7.18365L27.305 7.28735C27.3176 7.32154 27.3273 7.35482 27.3346 7.39037L27.6285 7.33006ZM27.5871 7.18533C27.0921 5.79093 25.7984 4.85 24.3671 4.85V5.15C25.6651 5.15 26.8498 6.00495 27.3044 7.28568L27.5871 7.18533ZM24.3671 4.85H15.627V5.15H24.3671V4.85ZM15.627 4.85C14.9201 4.85 14.2413 5.0723 13.6635 5.49295L13.8401 5.73548C14.3672 5.35173 14.9843 5.15 15.627 5.15V4.85ZM13.6635 5.49295C13.086 5.91345 12.6529 6.49964 12.4072 7.18487L12.6896 7.28613C12.9157 6.65563 13.3128 6.11939 13.8401 5.73548L13.6635 5.49295ZM12.4077 7.18365C12.3904 7.23052 12.3763 7.27831 12.3657 7.33006L12.6595 7.39037C12.6668 7.35482 12.6766 7.32155 12.6892 7.28735L12.4077 7.18365ZM12.3662 7.32754L11.5714 10.888L11.8642 10.9533L12.659 7.3929L12.3662 7.32754ZM9.3981 11.0707H11.7178V10.7707H9.3981V11.0707ZM6.15 14.4688C6.15 12.5875 7.61466 11.0707 9.3981 11.0707V10.7707C7.43706 10.7707 5.85 12.434 5.85 14.4688H6.15ZM6.15 31.4517V14.4688H5.85V31.4517H6.15ZM9.3981 34.8498C7.61184 34.8498 6.15 33.33 6.15 31.4517H5.85C5.85 33.4832 7.43391 35.1498 9.3981 35.1498V34.8498ZM30.6019 34.8498H9.3981V35.1498H30.6019V34.8498ZM33.85 31.4517C33.85 33.33 32.3882 34.8498 30.6019 34.8498V35.1498C32.5661 35.1498 34.15 33.4832 34.15 31.4517H33.85ZM33.85 14.4688V31.4517H34.15V14.4688H33.85ZM30.6019 11.0707C32.3882 11.0707 33.85 12.5905 33.85 14.4688H34.15C34.15 12.4373 32.5661 10.7707 30.6019 10.7707V11.0707ZM28.279 11.0707H30.6019V10.7707H28.279V11.0707ZM32.1912 17.1721V14.4688H31.8912V17.1721H32.1912ZM32.1912 14.4688C32.1912 13.5628 31.4851 12.816 30.6019 12.816V13.116C31.3073 13.116 31.8912 13.7161 31.8912 14.4688H32.1912ZM30.6019 12.816H9.3981V13.116H30.6019V12.816ZM9.3981 12.816C8.51493 12.816 7.80884 13.5628 7.80884 14.4688H8.10884C8.10884 13.7161 8.6927 13.116 9.3981 13.116V12.816ZM7.80884 14.4688V17.1721H8.10884V14.4688H7.80884ZM32.0412 17.0221H7.95884V17.3221H32.0412V17.0221ZM7.95884 19.3674H32.0412V19.0674H7.95884V19.3674ZM32.1912 31.4517V19.2174H31.8912V31.4517H32.1912ZM30.6019 33.1045C31.4851 33.1045 32.1912 32.3577 32.1912 31.4517H31.8912C31.8912 32.2044 31.3073 32.8045 30.6019 32.8045V33.1045ZM9.3981 33.1045H30.6019V32.8045H9.3981V33.1045ZM7.80884 31.4517C7.80884 32.3577 8.51493 33.1045 9.3981 33.1045V32.8045C8.6927 32.8045 8.10884 32.2044 8.10884 31.4517H7.80884ZM7.80884 19.2174V31.4517H8.10884V19.2174H7.80884Z" fill="#3C3E42"/>
<path fill-rule="evenodd" clip-rule="evenodd" d="M21.0932 22.2354H18.9138V25.1459H16V27.3253H18.9138V30.2354H21.0932V27.3253H24V25.1459H21.0932V22.2354Z" fill="#16C2A3"/>
<rect x="-112.5" y="-424.5" width="1045" height="1481" rx="39.5" stroke="#EF5533"/>
</svg>
