<svg width="40" height="40" viewBox="0 0 40 40" fill="none" xmlns="http://www.w3.org/2000/svg">
<rect x="-275.5" y="-118.5" width="882" height="354" rx="19.5" stroke="black"/>
<path d="M32.1602 15.1715V8.45919C32.1575 7.80524 31.9032 7.17908 31.4532 6.71807C31.0032 6.25705 30.3942 5.99882 29.7597 6H10.1568C9.52242 5.99895 8.9135 6.25725 8.4636 6.71825C8.01369 7.17925 7.75952 7.80533 7.75683 8.45919V10.7191C7.25344 10.8619 6.80921 11.1705 6.49198 11.5979C6.17475 12.0253 6.00196 12.548 6 13.0861V31.5405C6.0026 32.1944 6.25673 32.8206 6.70665 33.2816C7.15656 33.7427 7.76553 34.001 8.4 34H31.6C32.2345 34.001 32.8434 33.7427 33.2934 33.2816C33.7433 32.8206 33.9974 32.1944 34 31.5405V17.5607C33.998 17.0075 33.8154 16.471 33.4817 16.0376C33.148 15.6042 32.6825 15.2991 32.1602 15.1715ZM10.1568 8.38206H29.7597C29.7796 8.38206 29.7987 8.3902 29.8128 8.40469C29.8269 8.41917 29.8349 8.43883 29.835 8.45937V15.101H23.15L19.1913 10.6265H10.0812V8.45919C10.0813 8.43863 10.0893 8.41896 10.1035 8.4045C10.1177 8.39004 10.1369 8.38197 10.1568 8.38206ZM31.6748 31.5405C31.6748 31.561 31.6668 31.5807 31.6527 31.5953C31.6386 31.6098 31.6195 31.6179 31.5995 31.6179H8.4C8.38005 31.6179 8.36091 31.6098 8.34679 31.5953C8.33267 31.5807 8.32471 31.561 8.32467 31.5405V13.0861C8.32471 13.0655 8.33267 13.0458 8.34679 13.0313C8.36091 13.0167 8.38005 13.0086 8.4 13.0086H18.16L22.1185 17.4829H31.6C31.6099 17.4829 31.6196 17.4849 31.6288 17.4888C31.6379 17.4926 31.6462 17.4983 31.6532 17.5055C31.6602 17.5127 31.6658 17.5212 31.6695 17.5306C31.6733 17.54 31.6753 17.55 31.6753 17.5602L31.6748 31.5405ZM28.5537 10.6265H22.6167V13.0086H28.5545L28.5537 10.6265Z" fill="#3C3E42"/>
<path d="M21 21.9052H17.0946V18H14.9054V21.9057H11V24.0949H14.9054V28H17.0946V24.0945H21V21.9052Z" fill="#16C2A3"/>
<rect x="-326.5" y="-424.5" width="1045" height="1481" rx="39.5" stroke="#EF5533"/>
</svg>
