<svg width="40" height="40" viewBox="0 0 40 40" fill="none" xmlns="http://www.w3.org/2000/svg">
<rect x="-61.5" y="-256.5" width="882" height="354" rx="19.5" stroke="black"/>
<path d="M29.4031 33.9999H9.59838C8.64431 33.9988 7.72964 33.6193 7.05504 32.9446C6.38044 32.27 6.00101 31.3553 6 30.4012V10.5963C6.00119 9.64239 6.3807 8.72785 7.05528 8.05333C7.72986 7.37882 8.64443 6.99939 9.59838 6.99829H21.8906V9.20026H9.59838C9.22824 9.2007 8.87339 9.34795 8.61169 9.60972C8.34999 9.87148 8.20282 10.2264 8.20246 10.5965V30.4012C8.20282 30.7713 8.34999 31.1262 8.6117 31.3879C8.8734 31.6497 9.22825 31.7969 9.59838 31.7973H29.4031C29.7732 31.7968 30.128 31.6496 30.3898 31.3879C30.6515 31.1262 30.7987 30.7713 30.7991 30.4012V18.5025H33.0016V30.4012C33.0006 31.3553 32.6211 32.27 31.9465 32.9447C31.2719 33.6193 30.3572 33.9988 29.4031 33.9999Z" fill="#3C3E42" stroke="#3C3E42" stroke-width="0.3"/>
<path d="M33.5057 9.43038L30.5904 6.51504C30.2595 6.18521 29.8113 6 29.3441 6C28.8769 6 28.4288 6.18521 28.0979 6.51504L15.7805 18.8334C15.5738 19.0402 15.4217 19.2951 15.3378 19.5752L14.0515 23.8827C13.9589 24.1915 13.9528 24.5198 14.0339 24.8317C14.1149 25.1437 14.28 25.4275 14.5112 25.6522C14.7423 25.8768 15.0307 26.0338 15.3449 26.1059C15.6591 26.178 15.987 26.1626 16.293 26.0612L20.4874 24.6761C20.7486 24.5895 20.986 24.4431 21.1808 24.2486L33.5055 11.923C33.8356 11.5922 34.021 11.144 34.021 10.6767C34.021 10.2094 33.8357 9.76122 33.5057 9.43038ZM17.099 21.2228L18.8268 22.9505L16.3377 23.7726L17.099 21.2228ZM20.6526 21.7228L18.2983 19.3688L26.8488 10.8183L29.2033 13.1729L20.6526 21.7228ZM30.7292 11.6455L28.3746 9.29154L29.3441 8.32199L31.6986 10.6768L30.7292 11.6455Z" fill="#16C2A3"/>
<rect x="-112.5" y="-562.5" width="1045" height="1481" rx="39.5" stroke="#EF5533"/>
</svg>
