<svg width="40" height="40" viewBox="0 0 40 40" fill="none" xmlns="http://www.w3.org/2000/svg">
<rect x="-489.5" y="-118.5" width="882" height="354" rx="19.5" stroke="black"/>
<path d="M22.191 26.2638C18.9179 24.3602 17.867 20.2627 19.8439 17.1109C21.8201 13.9591 26.0759 12.9472 29.3489 14.8508C32.622 16.7537 33.6729 20.8519 31.696 24.0037C31.0531 25.0286 30.1353 25.8678 29.0392 26.4332C32.1845 27.6786 34.4932 30.4839 34.9265 33.8492C35.0078 34.4811 34.4835 35 33.8463 35C33.2092 35 32.7029 34.4795 32.5958 33.8514C32.0263 30.5116 29.0146 27.9633 25.3846 27.9633C21.7552 27.9633 18.7436 30.5114 18.174 33.8511C18.0669 34.4794 17.5604 35 16.9231 35C16.2858 35 15.7613 34.4811 15.8427 33.849C16.297 30.3216 18.8118 27.4095 22.191 26.2638ZM7.30797 32.4076H11.7352C12.3487 32.4076 12.8461 32.905 12.8461 33.5186C12.8461 34.1321 12.3487 34.6295 11.7352 34.6295H6.15367C5.84774 34.6293 5.55439 34.5122 5.33807 34.3039C5.12176 34.0956 5.00016 33.8131 5 33.5185V6.11156C5 5.49808 5.51724 5 6.1543 5H28.4614C29.0985 5 29.6157 5.49808 29.6157 6.11156V11.0036C29.6157 11.6409 29.0991 12.1576 28.4618 12.1576C27.8244 12.1576 27.3078 11.6409 27.3078 11.0036V7.22249H7.30797V32.4076ZM25.7693 25.0004C26.9934 25.0004 28.1673 24.5322 29.0329 23.6987C29.8984 22.8652 30.3847 21.7348 30.3847 20.5561C30.3847 19.3774 29.8984 18.2469 29.0329 17.4135C28.1673 16.58 26.9934 16.1118 25.7693 16.1118C24.5453 16.1118 23.3713 16.58 22.5058 17.4135C21.6402 18.2469 21.154 19.3774 21.154 20.5561C21.154 21.7348 21.6402 22.8652 22.5058 23.6987C23.3713 24.5322 24.5453 25.0004 25.7693 25.0004Z" fill="#3C3E42"/>
<path d="M10 14V12H19V14H10Z" fill="#16C2A3"/>
<rect x="-540.5" y="-424.5" width="1045" height="1481" rx="39.5" stroke="#EF5533"/>
</svg>
