<svg width="40" height="40" viewBox="0 0 40 40" fill="none" xmlns="http://www.w3.org/2000/svg">
<rect x="-703.5" y="-118.5" width="882" height="354" rx="19.5" stroke="black"/>
<path d="M33.7609 29.8192C34.2139 29.6728 34.5895 29.3547 34.8053 28.9348C35.021 28.5149 35.0592 28.0275 34.9114 27.5798L32.4858 20.1937C32.3263 19.705 32.0138 19.279 31.5934 18.9772C31.1731 18.6754 30.6665 18.5133 30.1468 18.5144H26.2436C27.2235 16.7898 27.8946 14.8959 27.8946 13.0089C27.8946 8.59281 24.3116 5 19.9075 5C15.5033 5 11.9202 8.59281 11.9202 13.0089C11.9474 14.9371 12.4576 16.8286 13.4052 18.5144H9.85318C9.33355 18.5133 8.82702 18.6754 8.40665 18.9772C7.98629 19.279 7.67384 19.705 7.51437 20.1937L5.08866 27.5798C4.94085 28.0274 4.97898 28.5148 5.19468 28.9347C5.41038 29.3546 5.78599 29.6728 6.23897 29.8192L5.31665 32.6754C5.23041 32.9428 5.20926 33.2265 5.2549 33.5035C5.30055 33.7804 5.41171 34.0429 5.57935 34.2694C5.74698 34.4959 5.96636 34.6801 6.21963 34.8071C6.47291 34.934 6.75293 35.0001 7.03694 35H32.9631C33.2471 35.0001 33.5271 34.9339 33.7803 34.8069C34.0336 34.68 34.2529 34.4957 34.4205 34.2692C34.5881 34.0427 34.6993 33.7802 34.7449 33.5033C34.7906 33.2263 34.7694 32.9426 34.6832 32.6753L33.7609 29.8192ZM19.9075 7.27587C23.0408 7.27587 25.5899 9.8476 25.5899 13.0089C25.5899 16.5498 22.389 20.5087 19.8826 22.4569C17.0761 20.4385 14.2248 16.756 14.2248 13.0089C14.2248 9.8476 16.7741 7.27587 19.9075 7.27587ZM9.70664 20.8955C9.71654 20.8648 9.73609 20.838 9.76244 20.8191C9.78879 20.8001 9.82058 20.79 9.85318 20.7901H14.9075C16.0806 22.288 17.483 23.5959 19.0642 24.6665C19.3197 24.8325 19.6198 24.9186 19.9255 24.9135C20.2312 24.9083 20.5282 24.8123 20.7778 24.6378C22.2648 23.5434 23.5891 22.2484 24.712 20.7904H30.1468C30.1795 20.7903 30.2113 20.8005 30.2376 20.8195C30.264 20.8384 30.2836 20.8652 30.2936 20.8959L32.5075 27.6372H7.49255L9.70664 20.8955ZM7.71982 32.7243L8.62778 29.9126H31.3722L32.2813 32.7243H7.71982Z" fill="#3C3E42"/>
<path d="M23.5 12.9041H21.0959V10.5H18.904V12.9041H16.5V15.0959H18.904V17.5H21.0959V15.0959H23.5V12.9041Z" fill="#16C2A3"/>
<rect x="-754.5" y="-424.5" width="1045" height="1481" rx="39.5" stroke="#EF5533"/>
</svg>
