<svg width="90" height="90" viewBox="0 0 90 90" fill="none" xmlns="http://www.w3.org/2000/svg">
<path d="M0 45C0 56.9347 4.74106 68.3807 13.1802 76.8198C21.6193 85.2589 33.0653 90 45 90C56.9347 90 68.3807 85.2589 76.8198 76.8198C85.2589 68.3807 90 56.9347 90 45C90 33.0653 85.2589 21.6193 76.8198 13.1802C68.3807 4.74106 56.9347 0 45 0C33.0653 0 21.6193 4.74106 13.1802 13.1802C4.74106 21.6193 0 33.0653 0 45V45Z" fill="#DEEDFF"/>
<path d="M44.9992 90C57.9895 90 69.694 84.4956 77.908 75.6921C77.8862 75.4828 77.8104 75.2939 77.6741 75.1283C76.4337 73.6204 71.07 69.7127 65.7633 67.1249C59.0311 63.8414 52.7824 63.1572 52.7824 63.1572L43.4431 89.973C43.9597 89.9904 44.4783 90 44.9992 90V90Z" fill="white"/>
<path d="M45.0007 90C45.2469 90 45.4926 89.9973 45.7379 89.9934L36.6254 62.5414C36.6254 62.5414 30.3766 63.2256 23.6444 66.509C18.3377 69.0968 12.974 73.0046 11.7336 74.5125C11.6035 74.6706 11.5292 74.8503 11.5037 75.0485C19.7422 84.2263 31.6969 90 45.0007 90Z" fill="white"/>
<path d="M37.7051 58.2383H51.38V67.6901H37.7051V58.2383Z" fill="#F6CAA9"/>
<path d="M62.5232 38.7607C62.5232 49.8901 54.5324 58.9123 44.6752 58.9123C34.8176 58.9123 26.8268 49.8901 26.8268 38.7607C26.8268 27.6313 34.8176 18.6091 44.6752 18.6091C54.5324 18.6091 62.5232 27.6313 62.5232 38.7607Z" fill="#F6CAA9"/>
<path d="M37.8321 60.8341C37.8321 60.8341 36.2988 60.4906 36.6638 62.787C37.0657 65.3132 44.6223 86.5849 44.6223 86.5849L52.6172 63.7999C52.6172 63.7999 53.3472 60.7619 51.4946 61.0061L44.6223 66.9102L37.8321 60.8341Z" fill="#18509F"/>
<path d="M47.3871 78.7185C47.3871 78.7185 45.8721 71.8831 45.8173 71.6118C45.7627 71.3405 46.3103 70.5808 46.3103 70.147C46.3103 69.7132 45.9267 69.4419 45.4341 68.8993C44.9412 68.3567 44.5579 67.2899 44.5579 67.2899V67.3416C44.5123 67.4652 44.1515 68.4194 43.6908 68.9263C43.1978 69.4689 42.8146 69.7402 42.8146 70.174C42.8146 70.6083 43.3623 71.3675 43.3076 71.6388C43.253 71.9102 41.8837 78.5285 41.8837 78.5285L44.6764 86.6391L44.6217 86.585L47.3871 78.7185V78.7185Z" fill="#1A305D"/>
<path d="M29.0838 39.942C29.0838 41.6059 27.8563 42.955 26.3416 42.955C24.8274 42.955 23.5999 41.6059 23.5999 39.942C23.5999 38.2781 24.8274 36.929 26.3416 36.929C27.8563 36.929 29.0838 38.2781 29.0838 39.942ZM65.7149 39.905C65.7149 41.5689 64.4874 42.9179 62.9727 42.9179C61.4585 42.9179 60.231 41.5689 60.231 39.905C60.231 38.2411 61.4585 36.892 62.9727 36.892C64.4874 36.892 65.7149 38.2411 65.7149 39.905Z" fill="#F6CAA9"/>
<path d="M54.6449 25.1781C54.6449 25.1781 59.6305 27.4503 56.2403 29.1293C53.1493 30.0183 46.7676 29.4257 43.7764 29.0304C40.7852 28.6355 32.4592 25.8697 32.4592 25.8697L32.7086 27.8948C32.7086 27.8948 39.0099 30.1624 44.2747 30.9073C49.5097 31.6481 55.3429 32.3894 57.8357 30.5125C60.0294 29.1293 59.4311 26.7586 59.4311 26.7586C59.4311 26.7586 62.1729 26.4623 62.472 25.8697L61.5746 24.1902C61.5747 24.1902 60.5279 24.7828 54.6449 25.1781" fill="#ECB485"/>
<path d="M55.8098 17.2261C55.8098 17.2261 64.0526 13.5383 53.8155 11.826C43.5788 10.1137 32.9431 15.5138 30.4168 21.0456C30.4168 21.0456 25.8969 20.2555 24.9659 29.7386C24.9659 35.534 25.8969 36.9828 25.8969 36.9828C25.8969 36.9828 27.3257 36.5876 27.2263 40.3414C27.2263 40.3414 28.323 41.6252 28.8213 40.2425C28.8213 40.2425 29.1204 37.674 28.7218 36.8839C28.7218 36.8839 33.1091 34.5131 32.7102 26.1165C32.7102 26.1165 37.3966 28.3887 44.5758 29.1788C51.7546 29.9689 55.9426 29.2778 55.9426 29.2778C55.9426 29.2778 55.9426 33.8217 59.9309 36.6866L59.7317 39.9463C59.7317 39.9463 59.8311 40.6379 60.5292 40.6379C61.2273 40.6379 61.3271 39.551 61.3271 39.551C61.3271 39.551 61.2273 37.1804 62.8227 36.884C62.8227 36.884 64.7172 29.7716 62.3239 24.2397C62.3239 24.2397 65.6146 22.9555 64.2184 19.8932C62.8229 16.8309 55.8098 17.2261 55.8098 17.2261" fill="#4A4A4A"/>
<path d="M37.7414 57.3712C37.7414 57.3712 40.3333 58.7093 44.0938 58.7093C48.5109 58.8903 51.3948 57.4074 51.3948 57.4074V58.7454C51.3948 58.7454 46.5393 61.3496 44.349 61.3496C42.1587 61.3496 37.7051 58.2754 37.7051 58.2754L37.7414 57.3712V57.3712Z" fill="#ECB485"/>
<path d="M63.5468 79.8201H60.313C59.8902 79.8201 59.5461 79.4807 59.5461 79.0635C59.5461 78.6469 59.8902 78.3074 60.313 78.3074H62.0134V75.5235C62.0134 75.1065 62.3575 74.7669 62.7803 74.7669C63.2031 74.7669 63.5468 75.1064 63.5468 75.5235V79.8201V79.8201ZM56.4457 79.82H53.2115V75.5238C53.2115 75.1064 53.5557 74.7668 53.9785 74.7668C54.4012 74.7668 54.745 75.1063 54.745 75.5238V78.3073H56.4457C56.8685 78.3073 57.2122 78.6467 57.2122 79.0639C57.2122 79.4806 56.8686 79.82 56.4457 79.82V79.82Z" fill="#3B82BC"/>
<path d="M62.8968 25.8844L62.6685 25.1237L62.323 24.2396C62.323 24.2396 60.5283 24.7828 54.6454 25.1781C54.6454 25.1781 59.6309 27.4503 56.2408 29.1294C56.1384 29.1588 56.0318 29.1864 55.9225 29.2126C56.0013 29.7887 56.1254 30.5727 56.2914 31.2544C56.8895 31.0738 57.4121 30.8318 57.8362 30.5125C60.0298 29.1294 59.4316 26.7586 59.4316 26.7586C59.4316 26.7586 62.5976 26.4772 62.8968 25.8844V25.8844Z" fill="#272727"/>
<path d="M30.906 78.6808C33.6456 78.6808 35.8743 76.4819 35.8743 73.7797C35.8743 71.4909 34.2757 69.5642 32.1222 69.0277C32.1288 68.9791 32.1333 68.9299 32.1333 68.8797V63.4246C31.3723 63.6182 30.6164 63.831 29.8662 64.0628C29.8623 64.2183 29.8602 64.3723 29.8602 64.5229V68.8797C29.8602 68.9161 29.8623 68.952 29.8657 68.9876C27.6239 69.4607 25.9377 71.4291 25.9377 73.7798C25.9377 76.4819 28.1663 78.6808 30.906 78.6808V78.6808ZM30.906 71.2433C32.3236 71.2433 33.4772 72.3812 33.4772 73.7797C33.4772 75.1781 32.3237 76.3159 30.906 76.3159C29.4884 76.3159 28.3349 75.1781 28.3349 73.7797C28.3349 72.3812 29.4883 71.2433 30.906 71.2433ZM63.883 75.0809V73.9747C63.883 71.3693 61.9906 69.1927 59.4913 68.7094V64.6628C58.6992 64.4191 57.9008 64.1965 57.0969 63.9954V68.7582C54.7093 69.3247 52.9294 71.4477 52.9294 73.9747V75.0809C52.9294 75.6809 53.4239 76.1691 54.0326 76.1691C54.6409 76.1691 55.1358 75.6808 55.1358 75.0809V73.9747C55.1358 72.2161 56.586 70.7852 58.3687 70.7852H58.4437C60.226 70.7852 61.6766 72.2161 61.6766 73.9747V75.0809C61.6766 75.6809 62.1715 76.1691 62.7798 76.1691C63.388 76.1692 63.883 75.6809 63.883 75.0809V75.0809Z" fill="#1A305D"/>
<rect x="-733.5" y="-134.5" width="1209" height="286" rx="39.5" stroke="#EF5533"/>
</svg>
