<svg width="60" height="60" viewBox="0 0 60 60" fill="none" xmlns="http://www.w3.org/2000/svg">
<g clip-path="url(#clip0_1979_13714)">
<path d="M30 0C13.433 0 0 13.433 0 30C0 46.567 13.433 60 30 60C46.567 60 60 46.567 60 30C60 13.433 46.567 0 30 0ZM44.096 41.0089C43.3259 41.1027 41.0893 37.4799 41.0893 37.4799C41.0893 39.5759 40.0045 42.3147 37.6674 44.2969C38.7991 44.6451 41.3438 45.5826 40.7411 46.6004C40.2522 47.4241 32.3304 47.1295 30.0402 46.8683C27.75 47.1228 19.8281 47.4241 19.3393 46.6004C18.7299 45.5826 21.2746 44.6451 22.4062 44.2969C20.0625 42.3214 18.9844 39.5826 18.9844 37.4799C18.9844 37.4799 16.7478 41.1027 15.9777 41.0089C15.6161 40.9621 15.1473 39.0268 16.6071 34.3326C17.2969 32.1228 18.0804 30.2812 19.2991 27.2478C19.0915 19.4196 22.3326 12.8504 30.0402 12.8504C37.6674 12.8504 40.9754 19.2857 40.7812 27.2478C41.9933 30.2746 42.7835 32.1228 43.4732 34.3326C44.9263 39.0268 44.4509 40.9688 44.096 41.0089V41.0089Z" fill="#00AAFF"/>
</g>
<defs>
<clipPath id="clip0_1979_13714">
<rect width="60" height="60" fill="white"/>
</clipPath>
</defs>
</svg>
